<svg xmlns="http://www.w3.org/2000/svg" viewBox="0 0 234.26 355.41"><defs><style>.cls-1{fill:#cd3349;}.cls-2{fill:#4a3c3d;}.cls-3{fill:#f05951;}.cls-4{fill:#cc3449;}.cls-5{fill:#cf394e;}.cls-6{fill:#371e22;}.cls-7{fill:#f6e634;}.cls-8{fill:#3a171d;}.cls-9{fill:#e87588;}.cls-10{fill:#e87689;}.cls-11{fill:#fdfcfc;}.cls-12{fill:#090909;}.cls-13{fill:#888;}</style></defs><title>Asset 1</title><g id="Layer_2" data-name="Layer 2"><g id="Layer_1-2" data-name="Layer 1"><path class="cls-1" d="M177,343.23c-25.05,11.58-51.37,14.16-78.47,10.85A125.37,125.37,0,0,1,55,340.47c.13-1.32.18-2.65.42-4A282.5,282.5,0,0,0,60,295.6a230.2,230.2,0,0,0-4.24-53.47c-3.74-18.26-8.68-36.32-19.89-51.7-5-6.83-10.52-13.78-20.8-11.69q3-8.3,6.07-16.57a3.44,3.44,0,0,1,.76.27C30.72,185,54.3,197.73,77.08,192.29c11-2.61,19.62-8.75,26.85-17.16a20.6,20.6,0,0,0,1.41,12.58,189.62,189.62,0,0,0,9.51,19.16c1.44,2.5,2.43,2.91,3.91.14,4.92-9.19,10.54-18.09,12.2-28.67,2.37,1.79,4.76,3.53,7.1,5.35,24.62,19.2,62,8.78,73-20.34,1.09-1.89,1.36-4.25,3.18-5.73A208.45,208.45,0,0,1,220,181.36c-5.76-2.86-11.51-4.53-17,.59a52.87,52.87,0,0,0-5.87,6.11c-10.83,14.18-16.06,30.77-20.16,47.79-3.19,13.23-4.13,26.76-5.42,40.28-1.16,12.21.25,24.16.93,36.2C173.12,322.75,175.43,332.94,177,343.23Z"/><path class="cls-2" d="M72.47,67.66c-.1-6-.36-12-.23-18,.07-2.85-1-4.07-3.59-5C56.77,40.44,45,36,33.12,31.57c-1.67-.62-3.3-1.31-6.16-2.46,9.72-3.13,18.27-5.9,26.83-8.64Q84.89,10.53,116,.59a10.12,10.12,0,0,1,6.72,0c26.46,8.88,53,17.65,79.43,26.49,1.33.45,3.54.25,3.62,2,.11,2.17-2.32,2-3.73,2.54-11.14,4.36-22.29,8.71-33.52,12.85-3,1.08-4.12,2.62-4,5.81.14,6-.14,12-.24,18a20.93,20.93,0,0,1-2.85,1.92c-22,10.23-44.61,13.12-68.12,6.35C86,74.44,78.52,72.66,72.47,67.66Z"/><path class="cls-3" d="M15.1,178.74c10.28-2.09,15.82,4.86,20.8,11.69,11.21,15.38,16.15,33.44,19.89,51.7A230.2,230.2,0,0,1,60,295.6a282.5,282.5,0,0,1-4.59,40.92c-.24,1.3-.29,2.63-.42,4-.71,3.71-2,5-5,1.51-4.89-5.6-10-11-15-16.51l-1.09-1.11.09.09-1.09-1.09,0,.1c.47-2.06-.85-3.45-1.87-4.95-8.84-13-15.11-27.18-20.16-42-4.1-12.06-6.35-24.56-8.62-37C.92,226.72.39,214,2.84,201.28,4.54,192.39,7.43,184.3,15.1,178.74Z"/><path class="cls-3" d="M177,343.23c-1.56-10.29-3.87-20.48-4.46-30.9-.68-12-2.09-24-.93-36.2,1.29-13.52,2.23-27,5.42-40.28,4.1-17,9.33-33.61,20.16-47.79a52.87,52.87,0,0,1,5.87-6.11c5.45-5.12,11.2-3.45,17-.59,6.66,8,8.73,17.7,9.67,27.7.55,5.77.71,11.58,1,17.37-2.25,8-2.09,16.31-3.68,24.41-4.4,22.3-11.84,43.36-23.59,62.94-4.61,7.69-11,14.07-15.29,21.9l.07-.2-1.17,1.09.11-.16-1.18,1c-2,1.95-3.94,3.94-6,5.86C179.08,344.16,178,345.27,177,343.23Z"/><path class="cls-4" d="M72.47,67.66c6,5,13.51,6.78,20.77,8.87,23.51,6.77,46.17,3.88,68.12-6.35a20.93,20.93,0,0,0,2.85-1.92c12.91-5.65,23.09-14.93,33.54-25.75,1.61,23,4,44.95,7.12,66.84-.65-.74-1.31-1.47-2-2.21-12.74-14-28.24-19.91-47.06-15.72-1.81.41-4.1.44-4.82,2.87l-1.65.09c-2.94-.44-5.08,1.36-7.28,2.75-21.38,13.51-30,41.05-20.53,65,.66,1.67,1.88,3.21,1.49,5.19a17.17,17.17,0,0,0-15.25,2.24,18.28,18.28,0,0,1,.87-2.31c10.5-20,9.14-39.4-3.75-57.74C91,89.78,61.86,84,42.81,96.77c-2.61.49-4.12,2.91-6.53,3.77,2.17-18.56,4.15-37.14,3.55-57C50.43,53.33,59.92,62.63,72.47,67.66Z"/><path class="cls-5" d="M188.17,335.68c4.33-7.83,10.68-14.21,15.29-21.9,11.75-19.58,19.19-40.64,23.59-62.94,1.59-8.1,1.43-16.43,3.68-24.41,5.58,26.61.47,51.56-11.87,75.33A89.58,89.58,0,0,1,192,333.54C190.82,334.41,189.83,335.64,188.17,335.68Z"/><path class="cls-6" d="M151,94.29c.72-2.43,3-2.46,4.82-2.87,18.82-4.19,34.32,1.68,47.06,15.72.66.74,1.32,1.47,2,2.21,4.17,5.87,7.7,12.09,9.45,19.13.72,2.93,1.83,2.84,4,1.32s4.28-2.55,6.41-3.83c3-1.81,5.65-.45,8,1.24,1.84,1.33,1.89,3.65,1,5.48-1.32,2.64-3.16,5-6.64,4.78-.47-1.78.58-1.86,1.47-2.36,2-1.15,4.4-2.67,3.07-5.36-1.42-2.86-4-3.15-6.77-1.42s-5.67,3.44-8.52,5.15c-.65,0-1.15,0-.61.86l.18,3c-1,.74-.79,1.39.16,2a13.17,13.17,0,0,1,0,6c-.14.09-.4.19-.39.25a4.71,4.71,0,0,0,.27.77l-.51,4.09-.41,1.75c-.24,1.81-.47,3.62-.71,5.43-1.82,1.47-2.09,3.83-3.18,5.72l-1.64-.22c.75-2,1.54-4,2.25-6.1,10.88-31.35-15.74-68.57-49.39-64.63C158.49,92.84,154.77,93.65,151,94.29Z"/><path class="cls-5" d="M2.28,239.47c2.27,12.49,4.52,25,8.62,37,5,14.81,11.32,29,20.16,42,1,1.5,2.34,2.89,1.87,4.95C18.33,309.63,10.15,292.28,5.74,273A134.49,134.49,0,0,1,2.28,239.47Z"/><path class="cls-2" d="M21.93,162.44a3.44,3.44,0,0,0-.76-.27c-2.71-8.58-5.28-17.18-3.5-26.35a2.3,2.3,0,0,0-.91-2.65c-3.14-1.83-6-4.19-9.75-4.79-1.56-.25-3.53-.6-4.4,1.33s.13,3.55,1.49,4.84c.91.85,2.42,1,3,2.71-2.63,1.1-4.28-.13-5.62-2.15s-2-4.33-.89-6.6,3.56-3,6-2.72c3.19.39,6,2,8.63,3.7,2.38,1.52,3.13,1.06,3.86-1.73,2.14-8.11,5.69-15.56,11.81-21.55l1.3,1.24q-2.94,4.14-5.89,8.29l-.1.32c-7.23,13.63-8,27.86-3.92,42.54C22.14,159.88,22,161.16,21.93,162.44Z"/><path class="cls-6" d="M36.28,100.54c2.41-.86,3.92-3.28,6.53-3.77.07.56.14,1.12.2,1.68l-7,5.23-.09-2.44A1.55,1.55,0,0,1,36.28,100.54Z"/><path class="cls-2" d="M35.93,101.24l.09,2.44-3.86,3.77-1.31-1.24A15.86,15.86,0,0,1,35.93,101.24Z"/><path class="cls-2" d="M216,139.35c-.95-.58-1.13-1.23-.16-2A1.63,1.63,0,0,1,216,139.35Z"/><path class="cls-2" d="M214.93,152.2l.41-1.75A1.51,1.51,0,0,1,214.93,152.2Z"/><path class="cls-2" d="M215.67,134.34c-.54-.82,0-.89.61-.86Z"/><path class="cls-5" d="M32.89,323.36,34,324.45Z"/><path class="cls-5" d="M33.89,324.36,35,325.47Z"/><path class="cls-5" d="M187.07,336.57l1.17-1.09C188.25,336.27,187.73,336.5,187.07,336.57Z"/><path class="cls-5" d="M186,337.39l1.18-1Z"/><path class="cls-2" d="M215.85,146.36a4.71,4.71,0,0,1-.27-.77c0-.06.25-.16.39-.25Z"/><path class="cls-7" d="M107.8,169.57a17.17,17.17,0,0,1,15.25-2.24l0,0,1.07,1,6.15,8.65c-.06.65,0,1.24.77,1.43l0,0c-1.66,10.58-7.28,19.48-12.2,28.67-1.48,2.77-2.47,2.36-3.91-.14a189.62,189.62,0,0,1-9.51-19.16,20.6,20.6,0,0,1-1.41-12.58Zm8.8,9.62a24.66,24.66,0,0,0,3,0c1.72-.22,4,.94,5-.94,1.12-2.11-.33-4.14-1.59-5.89a7.39,7.39,0,0,0-2.13-2,7,7,0,0,0-8.35.49c-2.35,1.79-4.34,4.51-3.19,7.21s4.46.69,6.76,1.19A2.67,2.67,0,0,0,116.6,179.19Z"/><path class="cls-8" d="M107.8,169.57l-3.87,5.56c-7.23,8.41-15.9,14.55-26.85,17.16C54.3,197.73,30.72,185,21.93,162.44c.1-1.28.21-2.56.31-3.84,1.38,2.84,2.6,5.78,4.18,8.5,10.29,17.79,29.11,27.19,47.32,23.65C93,187,105.1,175,110.86,156.87c6-19,2-36.35-11.79-50.87C87,93.27,65.75,86.14,43,98.45c-.06-.56-.13-1.12-.2-1.68,19-12.78,48.22-7,62.11,12.75,12.89,18.34,14.25,37.72,3.75,57.74A18.28,18.28,0,0,0,107.8,169.57Z"/><path class="cls-8" d="M130.22,177l-6.15-8.65c-.13-.58-.36-1-1.07-1l0,0c.39-2-.83-3.52-1.49-5.19-9.5-24-.85-51.5,20.53-65,2.2-1.39,4.34-3.19,7.28-2.75-.08,1.41-1.19,1.82-2.22,2.4-20.92,11.82-30.44,32.28-26.07,55.95,5.11,27.65,33.91,45.14,60,36.38,13.25-4.45,22-13.88,28.29-26l1.64.22c-11,29.12-48.36,39.54-73,20.34-2.34-1.82-4.73-3.56-7.1-5.35l0,0Z"/><path class="cls-9" d="M209.4,163.13c-6.26,12.1-15,21.53-28.29,26-26.12,8.76-54.92-8.73-60-36.38-4.37-23.67,5.15-44.13,26.07-55.95,1-.58,2.14-1,2.22-2.4l1.65-.09c3.75-.64,7.47-1.45,11.24-1.89,33.65-3.94,60.27,33.28,49.39,64.63C210.94,159.08,210.15,161.1,209.4,163.13Zm-80.49-21.9c-.19,23,16.85,41.48,38.72,41.91,20.81.42,39.2-18.77,39.31-41,.1-22.5-17.33-41.3-38.61-41.63S129.08,118.78,128.91,141.23Z"/><path class="cls-10" d="M43,98.45C65.75,86.14,87,93.27,99.07,106c13.81,14.52,17.83,31.91,11.79,50.87C105.1,175,93,187,73.74,190.75c-18.21,3.54-37-5.86-47.32-23.65-1.58-2.72-2.8-5.66-4.18-8.5-4.1-14.68-3.31-28.91,3.91-42.54l.11-.32q2.94-4.15,5.89-8.29L36,103.68Zm63.25,43.42c0-29.11-26.56-48.54-52.72-38.54-19.88,7.61-30.38,32.45-22.48,53.27C37.75,174.23,52.93,184,69,182.87,91.29,181.37,106.24,164.3,106.26,141.87Z"/><path class="cls-6" d="M26.26,115.74l-.11.32S26.26,115.74,26.26,115.74Z"/><path class="cls-11" d="M116.6,179.19a2.67,2.67,0,0,1-.49,0c-2.3-.5-5.64,1.44-6.76-1.19s.84-5.42,3.19-7.21a7,7,0,0,1,8.35-.49,7.39,7.39,0,0,1,2.13,2c1.26,1.75,2.71,3.78,1.59,5.89-1,1.88-3.31.72-5,.94A24.66,24.66,0,0,1,116.6,179.19Z"/><path class="cls-4" d="M123,167.3c.71,0,.94.42,1.07,1Z"/><path class="cls-1" d="M130.22,177l.77,1.43C130.19,178.19,130.16,177.6,130.22,177Z"/><path class="cls-11" d="M128.91,141.23c.17-22.45,18.18-41,39.42-40.71s38.71,19.13,38.61,41.63c-.11,22.22-18.5,41.41-39.31,41C145.76,182.71,128.72,164.27,128.91,141.23Zm14.85,14.7c0,9,6.88,16.24,15.37,16.27s15.46-7.28,15.57-16.16c.1-9.07-7.12-16.68-15.7-16.55S143.74,146.91,143.76,155.93Z"/><path class="cls-11" d="M106.26,141.87c0,22.43-15,39.5-37.29,41-16,1.08-31.22-8.64-37.91-26.27-7.9-20.82,2.6-45.66,22.48-53.27C79.7,93.33,106.28,112.76,106.26,141.87Zm-12.12,14.7c.29-9.27-6.38-16.84-15-17.08-8.34-.23-15.61,7-15.88,15.9s6.51,16.44,14.94,16.79S93.87,165.51,94.14,156.57Z"/><path class="cls-12" d="M143.76,155.93c0-9,6.74-16.32,15.24-16.44S174.8,147,174.7,156c-.11,8.88-7.13,16.18-15.57,16.16S143.78,164.91,143.76,155.93Zm15.36.09c3.68-.52,6.77-1.9,6.75-6s-2.82-5.83-6.64-5.82-6.57,1.62-6.6,5.81S155.58,155.55,159.12,156Z"/><path class="cls-12" d="M94.14,156.57c-.27,8.94-7.47,16-16,15.61s-15.2-8-14.94-16.79,7.54-16.13,15.88-15.9C87.76,139.73,94.43,147.3,94.14,156.57ZM79.52,144.66c-3.67-.17-7,2.43-7.28,5.55s2.5,6,6.27,6.28c4,.26,7.39-2.23,7.33-5.67C85.77,146.74,83,145.22,79.52,144.66Z"/><path class="cls-13" d="M159.12,156c-3.54-.47-6.52-1.81-6.49-6s2.81-5.8,6.6-5.81,6.63,1.75,6.64,5.82S162.8,155.5,159.12,156Z"/><path class="cls-13" d="M79.52,144.66c3.43.56,6.25,2.08,6.32,6.16.06,3.44-3.34,5.93-7.33,5.67-3.77-.24-6.57-3-6.27-6.28S75.85,144.49,79.52,144.66Z"/></g></g></svg>